<mxfile host="app.diagrams.net" agent="Mozilla/5.0 (Windows NT 10.0; Win64; x64) AppleWebKit/537.36 (KHTML, like Gecko) Chrome/128.0.0.0 Safari/537.36" version="24.7.16" pages="2">
  <diagram name="Page-1" id="GSxazzxs7d7Ay9CGwdHX">
    <mxGraphModel dx="1938" dy="1860" grid="1" gridSize="10" guides="1" tooltips="1" connect="1" arrows="1" fold="1" page="1" pageScale="1" pageWidth="827" pageHeight="1169" math="0" shadow="0">
      <root>
        <mxCell id="0" />
        <mxCell id="1" parent="0" />
        <mxCell id="4ReEwzWl3bflVmk8Mlmr-1" value="&lt;span style=&quot;font-family: Arial, Helvetica, sans-serif; text-align: left;&quot;&gt;&lt;font style=&quot;font-size: 15px;&quot;&gt;Un incident technique est actuellement constaté.La restitution des nouveaux mails clients est perturbée depuis StartDate.&lt;/font&gt;&lt;/span&gt;" style="rounded=1;whiteSpace=wrap;html=1;" parent="1" vertex="1">
          <mxGeometry x="320" y="-961.5" width="885" height="63" as="geometry" />
        </mxCell>
        <mxCell id="4ReEwzWl3bflVmk8Mlmr-2" value="" style="shape=table;startSize=0;container=1;collapsible=0;childLayout=tableLayout;" parent="1" vertex="1">
          <mxGeometry x="320" y="-1130" width="880" height="140" as="geometry" />
        </mxCell>
        <mxCell id="4ReEwzWl3bflVmk8Mlmr-3" value="" style="shape=tableRow;horizontal=0;startSize=0;swimlaneHead=0;swimlaneBody=0;strokeColor=inherit;top=0;left=0;bottom=0;right=0;collapsible=0;dropTarget=0;fillColor=none;points=[[0,0.5],[1,0.5]];portConstraint=eastwest;" parent="4ReEwzWl3bflVmk8Mlmr-2" vertex="1">
          <mxGeometry width="880" height="80" as="geometry" />
        </mxCell>
        <mxCell id="4ReEwzWl3bflVmk8Mlmr-4" value="Nom établissement" style="shape=partialRectangle;html=1;whiteSpace=wrap;connectable=0;strokeColor=inherit;overflow=hidden;fillColor=none;top=0;left=0;bottom=0;right=0;pointerEvents=1;" parent="4ReEwzWl3bflVmk8Mlmr-3" vertex="1">
          <mxGeometry width="221" height="80" as="geometry">
            <mxRectangle width="221" height="80" as="alternateBounds" />
          </mxGeometry>
        </mxCell>
        <mxCell id="4ReEwzWl3bflVmk8Mlmr-5" value="code établissement" style="shape=partialRectangle;html=1;whiteSpace=wrap;connectable=0;strokeColor=inherit;overflow=hidden;fillColor=none;top=0;left=0;bottom=0;right=0;pointerEvents=1;" parent="4ReEwzWl3bflVmk8Mlmr-3" vertex="1">
          <mxGeometry x="221" width="348" height="80" as="geometry">
            <mxRectangle width="348" height="80" as="alternateBounds" />
          </mxGeometry>
        </mxCell>
        <mxCell id="4ReEwzWl3bflVmk8Mlmr-6" value="active" style="shape=partialRectangle;html=1;whiteSpace=wrap;connectable=0;strokeColor=inherit;overflow=hidden;fillColor=none;top=0;left=0;bottom=0;right=0;pointerEvents=1;" parent="4ReEwzWl3bflVmk8Mlmr-3" vertex="1">
          <mxGeometry x="569" width="104" height="80" as="geometry">
            <mxRectangle width="104" height="80" as="alternateBounds" />
          </mxGeometry>
        </mxCell>
        <mxCell id="4ReEwzWl3bflVmk8Mlmr-16" value="Start Date" style="shape=partialRectangle;html=1;whiteSpace=wrap;connectable=0;strokeColor=inherit;overflow=hidden;fillColor=none;top=0;left=0;bottom=0;right=0;pointerEvents=1;" parent="4ReEwzWl3bflVmk8Mlmr-3" vertex="1">
          <mxGeometry x="673" width="103" height="80" as="geometry">
            <mxRectangle width="103" height="80" as="alternateBounds" />
          </mxGeometry>
        </mxCell>
        <mxCell id="4ReEwzWl3bflVmk8Mlmr-19" value="End Date" style="shape=partialRectangle;html=1;whiteSpace=wrap;connectable=0;strokeColor=inherit;overflow=hidden;fillColor=none;top=0;left=0;bottom=0;right=0;pointerEvents=1;" parent="4ReEwzWl3bflVmk8Mlmr-3" vertex="1">
          <mxGeometry x="776" width="104" height="80" as="geometry">
            <mxRectangle width="104" height="80" as="alternateBounds" />
          </mxGeometry>
        </mxCell>
        <mxCell id="4ReEwzWl3bflVmk8Mlmr-11" style="shape=tableRow;horizontal=0;startSize=0;swimlaneHead=0;swimlaneBody=0;strokeColor=inherit;top=0;left=0;bottom=0;right=0;collapsible=0;dropTarget=0;fillColor=none;points=[[0,0.5],[1,0.5]];portConstraint=eastwest;" parent="4ReEwzWl3bflVmk8Mlmr-2" vertex="1">
          <mxGeometry y="80" width="880" height="20" as="geometry" />
        </mxCell>
        <mxCell id="4ReEwzWl3bflVmk8Mlmr-12" value="BPALC" style="shape=partialRectangle;html=1;whiteSpace=wrap;connectable=0;strokeColor=inherit;overflow=hidden;fillColor=none;top=0;left=0;bottom=0;right=0;pointerEvents=1;" parent="4ReEwzWl3bflVmk8Mlmr-11" vertex="1">
          <mxGeometry width="221" height="20" as="geometry">
            <mxRectangle width="221" height="20" as="alternateBounds" />
          </mxGeometry>
        </mxCell>
        <mxCell id="4ReEwzWl3bflVmk8Mlmr-13" value="&lt;span style=&quot;color: rgb(22, 50, 92); font-family: &amp;quot;Salesforce Sans&amp;quot;, Arial, sans-serif; font-size: 13px; text-align: start; white-space: pre; background-color: rgb(255, 255, 255);&quot;&gt;047&lt;/span&gt;" style="shape=partialRectangle;html=1;whiteSpace=wrap;connectable=0;strokeColor=inherit;overflow=hidden;fillColor=none;top=0;left=0;bottom=0;right=0;pointerEvents=1;" parent="4ReEwzWl3bflVmk8Mlmr-11" vertex="1">
          <mxGeometry x="221" width="348" height="20" as="geometry">
            <mxRectangle width="348" height="20" as="alternateBounds" />
          </mxGeometry>
        </mxCell>
        <mxCell id="4ReEwzWl3bflVmk8Mlmr-14" style="shape=partialRectangle;html=1;whiteSpace=wrap;connectable=0;strokeColor=inherit;overflow=hidden;fillColor=none;top=0;left=0;bottom=0;right=0;pointerEvents=1;" parent="4ReEwzWl3bflVmk8Mlmr-11" vertex="1">
          <mxGeometry x="569" width="104" height="20" as="geometry">
            <mxRectangle width="104" height="20" as="alternateBounds" />
          </mxGeometry>
        </mxCell>
        <mxCell id="4ReEwzWl3bflVmk8Mlmr-17" value="" style="shape=partialRectangle;html=1;whiteSpace=wrap;connectable=0;strokeColor=inherit;overflow=hidden;fillColor=none;top=0;left=0;bottom=0;right=0;pointerEvents=1;" parent="4ReEwzWl3bflVmk8Mlmr-11" vertex="1">
          <mxGeometry x="673" width="103" height="20" as="geometry">
            <mxRectangle width="103" height="20" as="alternateBounds" />
          </mxGeometry>
        </mxCell>
        <mxCell id="4ReEwzWl3bflVmk8Mlmr-20" style="shape=partialRectangle;html=1;whiteSpace=wrap;connectable=0;strokeColor=inherit;overflow=hidden;fillColor=none;top=0;left=0;bottom=0;right=0;pointerEvents=1;" parent="4ReEwzWl3bflVmk8Mlmr-11" vertex="1">
          <mxGeometry x="776" width="104" height="20" as="geometry">
            <mxRectangle width="104" height="20" as="alternateBounds" />
          </mxGeometry>
        </mxCell>
        <mxCell id="4ReEwzWl3bflVmk8Mlmr-7" value="" style="shape=tableRow;horizontal=0;startSize=0;swimlaneHead=0;swimlaneBody=0;strokeColor=inherit;top=0;left=0;bottom=0;right=0;collapsible=0;dropTarget=0;fillColor=none;points=[[0,0.5],[1,0.5]];portConstraint=eastwest;" parent="4ReEwzWl3bflVmk8Mlmr-2" vertex="1">
          <mxGeometry y="100" width="880" height="40" as="geometry" />
        </mxCell>
        <mxCell id="4ReEwzWl3bflVmk8Mlmr-8" value="&lt;span style=&quot;color: rgb(22, 50, 92); font-family: &amp;quot;Salesforce Sans&amp;quot;, Arial, sans-serif; font-size: 13px; text-align: start; white-space: pre; background-color: rgb(255, 255, 255);&quot;&gt;BPAURA&lt;/span&gt;" style="shape=partialRectangle;html=1;whiteSpace=wrap;connectable=0;strokeColor=inherit;overflow=hidden;fillColor=none;top=0;left=0;bottom=0;right=0;pointerEvents=1;" parent="4ReEwzWl3bflVmk8Mlmr-7" vertex="1">
          <mxGeometry width="221" height="40" as="geometry">
            <mxRectangle width="221" height="40" as="alternateBounds" />
          </mxGeometry>
        </mxCell>
        <mxCell id="4ReEwzWl3bflVmk8Mlmr-9" value="&lt;span style=&quot;color: rgb(22, 50, 92); font-family: &amp;quot;Salesforce Sans&amp;quot;, Arial, sans-serif; font-size: 13px; text-align: start; white-space: pre; background-color: rgb(255, 255, 255);&quot;&gt;068&lt;/span&gt;" style="shape=partialRectangle;html=1;whiteSpace=wrap;connectable=0;strokeColor=inherit;overflow=hidden;fillColor=none;top=0;left=0;bottom=0;right=0;pointerEvents=1;" parent="4ReEwzWl3bflVmk8Mlmr-7" vertex="1">
          <mxGeometry x="221" width="348" height="40" as="geometry">
            <mxRectangle width="348" height="40" as="alternateBounds" />
          </mxGeometry>
        </mxCell>
        <mxCell id="4ReEwzWl3bflVmk8Mlmr-10" value="" style="shape=partialRectangle;html=1;whiteSpace=wrap;connectable=0;strokeColor=inherit;overflow=hidden;fillColor=none;top=0;left=0;bottom=0;right=0;pointerEvents=1;" parent="4ReEwzWl3bflVmk8Mlmr-7" vertex="1">
          <mxGeometry x="569" width="104" height="40" as="geometry">
            <mxRectangle width="104" height="40" as="alternateBounds" />
          </mxGeometry>
        </mxCell>
        <mxCell id="4ReEwzWl3bflVmk8Mlmr-18" style="shape=partialRectangle;html=1;whiteSpace=wrap;connectable=0;strokeColor=inherit;overflow=hidden;fillColor=none;top=0;left=0;bottom=0;right=0;pointerEvents=1;" parent="4ReEwzWl3bflVmk8Mlmr-7" vertex="1">
          <mxGeometry x="673" width="103" height="40" as="geometry">
            <mxRectangle width="103" height="40" as="alternateBounds" />
          </mxGeometry>
        </mxCell>
        <mxCell id="4ReEwzWl3bflVmk8Mlmr-21" style="shape=partialRectangle;html=1;whiteSpace=wrap;connectable=0;strokeColor=inherit;overflow=hidden;fillColor=none;top=0;left=0;bottom=0;right=0;pointerEvents=1;" parent="4ReEwzWl3bflVmk8Mlmr-7" vertex="1">
          <mxGeometry x="776" width="104" height="40" as="geometry">
            <mxRectangle width="104" height="40" as="alternateBounds" />
          </mxGeometry>
        </mxCell>
        <mxCell id="s1_YznU3QQ5CL8gMunuT-71" style="edgeStyle=orthogonalEdgeStyle;rounded=0;orthogonalLoop=1;jettySize=auto;html=1;entryX=0;entryY=0.5;entryDx=0;entryDy=0;" edge="1" parent="1" source="s1_YznU3QQ5CL8gMunuT-2" target="s1_YznU3QQ5CL8gMunuT-43">
          <mxGeometry relative="1" as="geometry">
            <mxPoint x="420" y="-680" as="sourcePoint" />
          </mxGeometry>
        </mxCell>
        <mxCell id="s1_YznU3QQ5CL8gMunuT-2" value="&lt;b&gt;&lt;font style=&quot;font-size: 20px;&quot;&gt;Incident pour BPALC le 23/09/2024&amp;nbsp; à&amp;nbsp; 11:21&amp;nbsp;&lt;/font&gt;&lt;/b&gt;" style="shape=umlActor;verticalLabelPosition=bottom;verticalAlign=top;html=1;outlineConnect=0;" vertex="1" parent="1">
          <mxGeometry x="30" y="-600" width="30" height="60" as="geometry" />
        </mxCell>
        <mxCell id="s1_YznU3QQ5CL8gMunuT-25" value="&lt;span style=&quot;background-color: rgb(255, 255, 255);&quot;&gt;&lt;b&gt;&lt;span style=&quot;font-family: Consolas, &amp;quot;Courier New&amp;quot;, monospace; font-size: 18px; white-space-collapse: preserve;&quot;&gt;TTMC_MessageIncident&lt;/span&gt;&lt;span style=&quot;font-size: 18px;&quot;&gt;&lt;font style=&quot;font-size: 18px;&quot;&gt;: Custom metadata&lt;/font&gt;&lt;/span&gt;&lt;/b&gt;&lt;/span&gt;&lt;div style=&quot;font-size: 18px;&quot;&gt;&lt;font style=&quot;font-size: 18px;&quot;&gt;&lt;b style=&quot;background-color: rgb(255, 255, 255);&quot;&gt;types&lt;/b&gt;&lt;/font&gt;&lt;/div&gt;" style="text;html=1;align=center;verticalAlign=middle;resizable=0;points=[];autosize=1;strokeColor=none;fillColor=none;fontSize=17;" vertex="1" parent="1">
          <mxGeometry x="-70" y="-1110" width="380" height="60" as="geometry" />
        </mxCell>
        <mxCell id="s1_YznU3QQ5CL8gMunuT-26" value="&lt;span style=&quot;font-family: Consolas, &amp;quot;Courier New&amp;quot;, monospace; font-size: 18px; white-space-collapse: preserve; background-color: rgb(255, 255, 255);&quot;&gt;TTMC_MessageAlertIncident:&lt;/span&gt;&lt;font style=&quot;background-color: rgb(255, 255, 255);&quot; color=&quot;#1f1f1f&quot;&gt;&lt;span style=&quot;font-family: Arial, Helvetica, sans-serif; font-size: 19px; text-align: start; text-wrap: wrap;&quot;&gt;&amp;nbsp;&lt;/span&gt;Custom label&lt;/font&gt;" style="text;html=1;align=center;verticalAlign=middle;resizable=0;points=[];autosize=1;strokeColor=none;fillColor=none;fontStyle=1;fontSize=19;" vertex="1" parent="1">
          <mxGeometry x="-80" y="-950" width="400" height="40" as="geometry" />
        </mxCell>
        <mxCell id="s1_YznU3QQ5CL8gMunuT-34" value="&lt;div style=&quot;font-family: Consolas, &amp;quot;Courier New&amp;quot;, monospace; font-size: 18px; line-height: 24px; white-space-collapse: preserve;&quot;&gt;&lt;b&gt;&lt;span style=&quot;background-color: rgb(255, 255, 255);&quot;&gt;TTMC_MessageResolutionIncident &lt;/span&gt;&lt;span style=&quot;background-color: rgb(255, 255, 255);&quot;&gt;:&lt;/span&gt;&lt;font style=&quot;font-family: Helvetica; white-space-collapse: collapse; font-size: 19px; background-color: rgb(255, 255, 255);&quot; color=&quot;#1f1f1f&quot;&gt;&lt;span style=&quot;font-family: Arial, Helvetica, sans-serif; text-align: start; text-wrap: wrap;&quot;&gt;&amp;nbsp;&lt;/span&gt;Custom label&lt;/font&gt;&lt;/b&gt;&lt;/div&gt;" style="text;html=1;align=center;verticalAlign=middle;resizable=0;points=[];autosize=1;strokeColor=none;fillColor=none;" vertex="1" parent="1">
          <mxGeometry x="-150" y="-830" width="460" height="40" as="geometry" />
        </mxCell>
        <mxCell id="s1_YznU3QQ5CL8gMunuT-35" value="&lt;span style=&quot;font-family: Arial, Helvetica, sans-serif; background-color: rgb(255, 255, 255);&quot;&gt;&lt;font style=&quot;font-size: 15px;&quot;&gt;&amp;nbsp; &amp;nbsp; &amp;nbsp; &amp;nbsp; &amp;nbsp; La restitution des mails a été perturbée du DateStart au DateEnd.Le service est de nouveau opérationnel.&lt;/font&gt;&lt;/span&gt;" style="whiteSpace=wrap;html=1;align=left;" vertex="1" parent="1">
          <mxGeometry x="320" y="-840" width="880" height="60" as="geometry" />
        </mxCell>
        <mxCell id="s1_YznU3QQ5CL8gMunuT-72" style="edgeStyle=orthogonalEdgeStyle;rounded=0;orthogonalLoop=1;jettySize=auto;html=1;entryX=0.52;entryY=0.052;entryDx=0;entryDy=0;entryPerimeter=0;" edge="1" parent="1" source="s1_YznU3QQ5CL8gMunuT-36" target="s1_YznU3QQ5CL8gMunuT-60">
          <mxGeometry relative="1" as="geometry">
            <mxPoint x="1030" y="-180" as="targetPoint" />
            <Array as="points">
              <mxPoint x="1000" y="-325" />
              <mxPoint x="1031" y="-325" />
              <mxPoint x="1031" y="-116" />
            </Array>
          </mxGeometry>
        </mxCell>
        <mxCell id="s1_YznU3QQ5CL8gMunuT-36" value="" style="shape=table;startSize=0;container=1;collapsible=0;childLayout=tableLayout;fontSize=17;" vertex="1" parent="1">
          <mxGeometry x="560" y="-720" width="1020" height="270" as="geometry" />
        </mxCell>
        <mxCell id="s1_YznU3QQ5CL8gMunuT-37" value="" style="shape=tableRow;horizontal=0;startSize=0;swimlaneHead=0;swimlaneBody=0;strokeColor=inherit;top=0;left=0;bottom=0;right=0;collapsible=0;dropTarget=0;fillColor=none;points=[[0,0.5],[1,0.5]];portConstraint=eastwest;" vertex="1" parent="s1_YznU3QQ5CL8gMunuT-36">
          <mxGeometry width="1020" height="120" as="geometry" />
        </mxCell>
        <mxCell id="s1_YznU3QQ5CL8gMunuT-38" value="Nom établissement" style="shape=partialRectangle;html=1;whiteSpace=wrap;connectable=0;strokeColor=inherit;overflow=hidden;fillColor=none;top=0;left=0;bottom=0;right=0;pointerEvents=1;fontSize=15;" vertex="1" parent="s1_YznU3QQ5CL8gMunuT-37">
          <mxGeometry width="256" height="120" as="geometry">
            <mxRectangle width="256" height="120" as="alternateBounds" />
          </mxGeometry>
        </mxCell>
        <mxCell id="s1_YznU3QQ5CL8gMunuT-39" value="code établissement" style="shape=partialRectangle;html=1;whiteSpace=wrap;connectable=0;strokeColor=inherit;overflow=hidden;fillColor=none;top=0;left=0;bottom=0;right=0;pointerEvents=1;fontSize=16;" vertex="1" parent="s1_YznU3QQ5CL8gMunuT-37">
          <mxGeometry x="256" width="344" height="120" as="geometry">
            <mxRectangle width="344" height="120" as="alternateBounds" />
          </mxGeometry>
        </mxCell>
        <mxCell id="s1_YznU3QQ5CL8gMunuT-40" value="active" style="shape=partialRectangle;html=1;whiteSpace=wrap;connectable=0;strokeColor=inherit;overflow=hidden;fillColor=none;top=0;left=0;bottom=0;right=0;pointerEvents=1;fontSize=16;" vertex="1" parent="s1_YznU3QQ5CL8gMunuT-37">
          <mxGeometry x="600" width="119" height="120" as="geometry">
            <mxRectangle width="119" height="120" as="alternateBounds" />
          </mxGeometry>
        </mxCell>
        <mxCell id="s1_YznU3QQ5CL8gMunuT-41" value="Start Date" style="shape=partialRectangle;html=1;whiteSpace=wrap;connectable=0;strokeColor=inherit;overflow=hidden;fillColor=none;top=0;left=0;bottom=0;right=0;pointerEvents=1;fontSize=15;" vertex="1" parent="s1_YznU3QQ5CL8gMunuT-37">
          <mxGeometry x="719" width="180" height="120" as="geometry">
            <mxRectangle width="180" height="120" as="alternateBounds" />
          </mxGeometry>
        </mxCell>
        <mxCell id="s1_YznU3QQ5CL8gMunuT-42" value="End Date" style="shape=partialRectangle;html=1;whiteSpace=wrap;connectable=0;strokeColor=inherit;overflow=hidden;fillColor=none;top=0;left=0;bottom=0;right=0;pointerEvents=1;fontSize=15;" vertex="1" parent="s1_YznU3QQ5CL8gMunuT-37">
          <mxGeometry x="899" width="121" height="120" as="geometry">
            <mxRectangle width="121" height="120" as="alternateBounds" />
          </mxGeometry>
        </mxCell>
        <mxCell id="s1_YznU3QQ5CL8gMunuT-43" style="shape=tableRow;horizontal=0;startSize=0;swimlaneHead=0;swimlaneBody=0;strokeColor=inherit;top=0;left=0;bottom=0;right=0;collapsible=0;dropTarget=0;fillColor=none;points=[[0,0.5],[1,0.5]];portConstraint=eastwest;" vertex="1" parent="s1_YznU3QQ5CL8gMunuT-36">
          <mxGeometry y="120" width="1020" height="60" as="geometry" />
        </mxCell>
        <mxCell id="s1_YznU3QQ5CL8gMunuT-44" value="BPALC" style="shape=partialRectangle;html=1;whiteSpace=wrap;connectable=0;strokeColor=inherit;overflow=hidden;fillColor=none;top=0;left=0;bottom=0;right=0;pointerEvents=1;" vertex="1" parent="s1_YznU3QQ5CL8gMunuT-43">
          <mxGeometry width="256" height="60" as="geometry">
            <mxRectangle width="256" height="60" as="alternateBounds" />
          </mxGeometry>
        </mxCell>
        <mxCell id="s1_YznU3QQ5CL8gMunuT-45" value="&lt;span style=&quot;color: rgb(22, 50, 92); font-family: &amp;quot;Salesforce Sans&amp;quot;, Arial, sans-serif; font-size: 13px; text-align: start; white-space: pre; background-color: rgb(255, 255, 255);&quot;&gt;047&lt;/span&gt;" style="shape=partialRectangle;html=1;whiteSpace=wrap;connectable=0;strokeColor=inherit;overflow=hidden;fillColor=none;top=0;left=0;bottom=0;right=0;pointerEvents=1;" vertex="1" parent="s1_YznU3QQ5CL8gMunuT-43">
          <mxGeometry x="256" width="344" height="60" as="geometry">
            <mxRectangle width="344" height="60" as="alternateBounds" />
          </mxGeometry>
        </mxCell>
        <mxCell id="s1_YznU3QQ5CL8gMunuT-46" style="shape=partialRectangle;html=1;whiteSpace=wrap;connectable=0;strokeColor=inherit;overflow=hidden;fillColor=none;top=0;left=0;bottom=0;right=0;pointerEvents=1;" vertex="1" parent="s1_YznU3QQ5CL8gMunuT-43">
          <mxGeometry x="600" width="119" height="60" as="geometry">
            <mxRectangle width="119" height="60" as="alternateBounds" />
          </mxGeometry>
        </mxCell>
        <mxCell id="s1_YznU3QQ5CL8gMunuT-47" value="&lt;b style=&quot;text-wrap: nowrap;&quot;&gt;&lt;font style=&quot;font-size: 20px;&quot;&gt;23/09/202 11:21&lt;/font&gt;&lt;/b&gt;" style="shape=partialRectangle;html=1;whiteSpace=wrap;connectable=0;strokeColor=inherit;overflow=hidden;fillColor=none;top=0;left=0;bottom=0;right=0;pointerEvents=1;" vertex="1" parent="s1_YznU3QQ5CL8gMunuT-43">
          <mxGeometry x="719" width="180" height="60" as="geometry">
            <mxRectangle width="180" height="60" as="alternateBounds" />
          </mxGeometry>
        </mxCell>
        <mxCell id="s1_YznU3QQ5CL8gMunuT-48" style="shape=partialRectangle;html=1;whiteSpace=wrap;connectable=0;strokeColor=inherit;overflow=hidden;fillColor=none;top=0;left=0;bottom=0;right=0;pointerEvents=1;" vertex="1" parent="s1_YznU3QQ5CL8gMunuT-43">
          <mxGeometry x="899" width="121" height="60" as="geometry">
            <mxRectangle width="121" height="60" as="alternateBounds" />
          </mxGeometry>
        </mxCell>
        <mxCell id="s1_YznU3QQ5CL8gMunuT-49" value="" style="shape=tableRow;horizontal=0;startSize=0;swimlaneHead=0;swimlaneBody=0;strokeColor=inherit;top=0;left=0;bottom=0;right=0;collapsible=0;dropTarget=0;fillColor=none;points=[[0,0.5],[1,0.5]];portConstraint=eastwest;" vertex="1" parent="s1_YznU3QQ5CL8gMunuT-36">
          <mxGeometry y="180" width="1020" height="90" as="geometry" />
        </mxCell>
        <mxCell id="s1_YznU3QQ5CL8gMunuT-50" value="&lt;span style=&quot;color: rgb(22, 50, 92); font-family: &amp;quot;Salesforce Sans&amp;quot;, Arial, sans-serif; font-size: 13px; text-align: start; white-space: pre; background-color: rgb(255, 255, 255);&quot;&gt;BPAURA&lt;/span&gt;" style="shape=partialRectangle;html=1;whiteSpace=wrap;connectable=0;strokeColor=inherit;overflow=hidden;fillColor=none;top=0;left=0;bottom=0;right=0;pointerEvents=1;" vertex="1" parent="s1_YznU3QQ5CL8gMunuT-49">
          <mxGeometry width="256" height="90" as="geometry">
            <mxRectangle width="256" height="90" as="alternateBounds" />
          </mxGeometry>
        </mxCell>
        <mxCell id="s1_YznU3QQ5CL8gMunuT-51" value="&lt;span style=&quot;color: rgb(22, 50, 92); font-family: &amp;quot;Salesforce Sans&amp;quot;, Arial, sans-serif; font-size: 13px; text-align: start; white-space: pre; background-color: rgb(255, 255, 255);&quot;&gt;068&lt;/span&gt;" style="shape=partialRectangle;html=1;whiteSpace=wrap;connectable=0;strokeColor=inherit;overflow=hidden;fillColor=none;top=0;left=0;bottom=0;right=0;pointerEvents=1;" vertex="1" parent="s1_YznU3QQ5CL8gMunuT-49">
          <mxGeometry x="256" width="344" height="90" as="geometry">
            <mxRectangle width="344" height="90" as="alternateBounds" />
          </mxGeometry>
        </mxCell>
        <mxCell id="s1_YznU3QQ5CL8gMunuT-52" value="" style="shape=partialRectangle;html=1;whiteSpace=wrap;connectable=0;strokeColor=inherit;overflow=hidden;fillColor=none;top=0;left=0;bottom=0;right=0;pointerEvents=1;" vertex="1" parent="s1_YznU3QQ5CL8gMunuT-49">
          <mxGeometry x="600" width="119" height="90" as="geometry">
            <mxRectangle width="119" height="90" as="alternateBounds" />
          </mxGeometry>
        </mxCell>
        <mxCell id="s1_YznU3QQ5CL8gMunuT-53" style="shape=partialRectangle;html=1;whiteSpace=wrap;connectable=0;strokeColor=inherit;overflow=hidden;fillColor=none;top=0;left=0;bottom=0;right=0;pointerEvents=1;" vertex="1" parent="s1_YznU3QQ5CL8gMunuT-49">
          <mxGeometry x="719" width="180" height="90" as="geometry">
            <mxRectangle width="180" height="90" as="alternateBounds" />
          </mxGeometry>
        </mxCell>
        <mxCell id="s1_YznU3QQ5CL8gMunuT-54" style="shape=partialRectangle;html=1;whiteSpace=wrap;connectable=0;strokeColor=inherit;overflow=hidden;fillColor=none;top=0;left=0;bottom=0;right=0;pointerEvents=1;" vertex="1" parent="s1_YznU3QQ5CL8gMunuT-49">
          <mxGeometry x="899" width="121" height="90" as="geometry">
            <mxRectangle width="121" height="90" as="alternateBounds" />
          </mxGeometry>
        </mxCell>
        <mxCell id="s1_YznU3QQ5CL8gMunuT-55" value="" style="verticalLabelPosition=bottom;verticalAlign=top;html=1;shape=mxgraph.basic.tick" vertex="1" parent="1">
          <mxGeometry x="1205" y="-590" width="31" height="30" as="geometry" />
        </mxCell>
        <mxCell id="s1_YznU3QQ5CL8gMunuT-58" value="&lt;b style=&quot;&quot;&gt;&lt;font style=&quot;font-size: 20px;&quot;&gt;Afficher le message d&#39;incident&lt;/font&gt;&lt;/b&gt;" style="text;html=1;align=center;verticalAlign=middle;resizable=0;points=[];autosize=1;strokeColor=none;fillColor=none;fontSize=16;" vertex="1" parent="1">
          <mxGeometry x="1040" y="-315" width="310" height="40" as="geometry" />
        </mxCell>
        <mxCell id="s1_YznU3QQ5CL8gMunuT-60" value="&lt;span style=&quot;background-color: rgb(153, 0, 0);&quot;&gt;&lt;span style=&quot;font-family: Arial, Helvetica, sans-serif; text-align: left;&quot;&gt;&lt;font style=&quot;font-size: 17px;&quot;&gt;Un incident technique est actuellement constaté.La restitution des nouveaux mails clients est perturbée depuis le&amp;nbsp;&lt;/font&gt;&lt;/span&gt;&lt;b style=&quot;text-wrap: nowrap;&quot;&gt;&lt;font style=&quot;font-size: 20px;&quot;&gt;23/09/202 11:21&lt;/font&gt;&lt;/b&gt;&lt;span style=&quot;font-family: Arial, Helvetica, sans-serif; text-align: left;&quot;&gt;&lt;font style=&quot;font-size: 17px;&quot;&gt;&amp;nbsp;.&lt;/font&gt;&lt;/span&gt;&lt;/span&gt;" style="rounded=1;whiteSpace=wrap;html=1;fontColor=#ffffff;labelBackgroundColor=#FF3333;fillColor=#a20025;strokeColor=#6F0000;arcSize=19;" vertex="1" parent="1">
          <mxGeometry x="490" y="-120" width="1045" height="83" as="geometry" />
        </mxCell>
        <mxCell id="R6xWsekcWGBC7eYAlIA9-1" value="&lt;span style=&quot;font-family: Arial, Helvetica, sans-serif; background-color: rgb(0, 153, 0);&quot;&gt;&lt;font color=&quot;#ffffff&quot; style=&quot;font-size: 19px;&quot;&gt;&amp;nbsp; &amp;nbsp; &amp;nbsp; &amp;nbsp; &amp;nbsp; La restitution des mails a été perturbée du DateStart au DateEnd.Le service est de nouveau opérationnel.&lt;/font&gt;&lt;/span&gt;" style="whiteSpace=wrap;html=1;align=left;fillColor=#60a917;fontColor=#ffffff;strokeColor=#2D7600;" vertex="1" parent="1">
          <mxGeometry x="520" y="50" width="1090" height="80" as="geometry" />
        </mxCell>
        <mxCell id="rxbvRuwBT2XVAx38fkDf-2" value="&lt;b&gt;&lt;font style=&quot;font-size: 24px;&quot;&gt;Incident Résolu&lt;/font&gt;&lt;/b&gt;" style="ellipse;whiteSpace=wrap;html=1;" vertex="1" parent="1">
          <mxGeometry x="30" y="20" width="270" height="130" as="geometry" />
        </mxCell>
        <mxCell id="rxbvRuwBT2XVAx38fkDf-3" value="&lt;b&gt;&lt;font style=&quot;font-size: 22px;&quot;&gt;Message Résolution Incident&lt;/font&gt;&lt;/b&gt;" style="text;html=1;align=center;verticalAlign=middle;resizable=0;points=[];autosize=1;strokeColor=none;fillColor=none;" vertex="1" parent="1">
          <mxGeometry x="240" width="330" height="40" as="geometry" />
        </mxCell>
        <mxCell id="rxbvRuwBT2XVAx38fkDf-12" value="" style="endArrow=classic;html=1;rounded=0;exitX=1;exitY=0.5;exitDx=0;exitDy=0;" edge="1" parent="1" source="rxbvRuwBT2XVAx38fkDf-2">
          <mxGeometry width="50" height="50" relative="1" as="geometry">
            <mxPoint x="350" y="110" as="sourcePoint" />
            <mxPoint x="520" y="85" as="targetPoint" />
          </mxGeometry>
        </mxCell>
      </root>
    </mxGraphModel>
  </diagram>
  <diagram id="MFhhSbUk5C9wprSzsZXw" name="Page-2">
    <mxGraphModel dx="778" dy="484" grid="1" gridSize="10" guides="1" tooltips="1" connect="1" arrows="1" fold="1" page="1" pageScale="1" pageWidth="850" pageHeight="1100" math="0" shadow="0">
      <root>
        <mxCell id="0" />
        <mxCell id="1" parent="0" />
      </root>
    </mxGraphModel>
  </diagram>
</mxfile>
